<svg xmlns="http://www.w3.org/2000/svg" width="283.067" height="74.96" viewBox="0 0 283.067 74.96">
  <g id="グループ_6" data-name="グループ 6" transform="translate(-146.821 -205.891)">
    <g id="グループ_1" data-name="グループ 1">
      <path id="パス_1" data-name="パス 1" d="M237.706,210.287a16.5,16.5,0,0,1,.064,1.734c0,.933-.016,2-.064,2.93h-1.752c-.016-.393-.082-1.1-.082-2.373s.066-1.9.1-2.291Zm11.751,8.314c-.869.113-2.162.162-3.16.211-.767.033-1.554.082-2.324.115a33.088,33.088,0,0,1-.064,3.879c-.328,0-2.948-.065-4.289-.262l.1-1.718a15.517,15.517,0,0,1,2.127.016c-.017-.7-.017-1.047-.033-1.817-1.506.05-3.354.115-4.518.148-.377.016-.638.016-.98.016l-.033-1.686a50.745,50.745,0,0,1,5.531-.376,5.6,5.6,0,0,1,.051-.786c.111-.147.834-1.1,1.144-1.439-.687.033-2.668.113-4.043.113l.018-1.587c1.5-.164,6.072-.458,7.92-.392a24.429,24.429,0,0,1-2.963,3.632v.377c2.439-.048,2.75-.048,5.5-.048Zm-8.806-9.526a1.127,1.127,0,0,1-1.18,1.113,1.317,1.317,0,0,1-1.324-1.342,1.022,1.022,0,0,1,1.129-1.014A1.328,1.328,0,0,1,240.651,209.075Zm7.006,5.45c-.067-.8-.067-2-.051-2.455-3.305.2-7.758.36-9.346.36l-.013-1.669c3.289-.213,4.367-.278,7.283-.377l-.9-.686a14.111,14.111,0,0,1,2.112-2.57l1.306,1.014a14.623,14.623,0,0,1-1.767,2.209c.41,0,2.193-.049,2.554-.049.229-.015.411-.015.686-.015.018.572.049,1.177.049,1.962,0,1.033-.049,1.752-.08,2.26Zm-3.881-5.5a1.141,1.141,0,0,1-1.162,1.113c-.981,0-1.291-1.048-1.291-1.408a1.07,1.07,0,0,1,1.064-1.064A1.44,1.44,0,0,1,243.776,209.026Z"/>
      <path id="パス_2" data-name="パス 2" d="M256.463,207.2c0,.655.049,3.568.049,4.174.492-.016.559-.016,1.621-.016v-1.571c3.207-.295,4.467-.344,9.608-.41v1.653c-.084,0-2.686.213-7.27.344-.342.016-1.83.033-2.142.048v1.6c-.557.049-.819.064-1.8.131v2.291a.841.841,0,0,1,.865-.769,1.152,1.152,0,0,1,1.064,1.1,1.021,1.021,0,0,1-.966.965,1.008,1.008,0,0,1-.963-.9c-.018,2.587-.018,2.963-.084,6.269H254.68c-.017-.688-.082-4.174-.082-4.6-.3.343-1.162,1.243-1.557,1.637l-1.046-1.244a28.168,28.168,0,0,1,2.586-3.061c0-.261.017-1.408.017-1.636-.328,0-1.8.033-2.094.033v-1.687c.621-.049.768-.064,2.125-.146.018-1.392.034-1.784.1-4.207Zm9.264,7.938c-.623.77-1.262,1.489-1.914,2.209,2.781,2.21,3.01,2.391,4.105,3.339l-.98,1.326a48.376,48.376,0,0,1-4.42-3.273,27.827,27.827,0,0,1-4.107,3.42l-1.047-1.211c2.258-2.144,2.521-2.373,3.648-3.486-.816-.72-1-.884-1.375-1.277L260.786,215c.244.181,1.308,1,1.537,1.164.687-.672,1.472-1.474,2.209-2.227Zm-4.141-2.078a19.185,19.185,0,0,1-2.5,2.684l-1.128-1.114a20.147,20.147,0,0,1,2.5-2.651Zm2.422-5.024a1.17,1.17,0,0,1-1.211,1.21,1.361,1.361,0,0,1-1.31-1.359,1.147,1.147,0,0,1,1.2-1.129A1.26,1.26,0,0,1,264.008,208.032Zm2.766,7.773a18.726,18.726,0,0,1-2.371-3.126l1.291-.867a15.933,15.933,0,0,1,2.322,3.109Z"/>
      <path id="パス_3" data-name="パス 3" d="M285.13,216.608c-4.19.286-4.444.3-7.049.4l1.369.634c-.59,1.318-.844,1.843-1.209,2.558.683-.127,2.7-.4,3.525-.508l.3,1.65a56.566,56.566,0,0,1-7.462,1.239l-.207-1.652c.271-.063.4-.079,1.6-.317a29.956,29.956,0,0,1,1.795-3.6c-.89.032-1.207.047-3.019.1a26.775,26.775,0,0,1-3.2,5.43l-1.35-.841a33.062,33.062,0,0,1,3.174-5.43l1.236.684.018-1.462c1.621-.127,2.572-.207,3.875-.285-.018-1.192-.018-1.351-.035-2.795-2.475.1-2.649.1-3.33.1v-1.749c1.125-.063,2.236-.141,3.347-.206.033-1.62.033-1.794.08-2.936l1.84-.016c.018.539.082,2.461.082,2.857,1.632-.047,1.808-.047,3.412-.047v1.7c-2.015.127-2.24.144-3.4.224-.014,1.587-.014,1.777-.031,2.776,2.462-.079,2.745-.094,4.618-.094Zm-11.969-2.285a1.236,1.236,0,0,1-1.237,1.221,1.456,1.456,0,0,1-1.445-1.381,1.2,1.2,0,0,1,1.254-1.175A1.436,1.436,0,0,1,273.161,214.323Zm1.033-4.351a1.262,1.262,0,0,1-1.287,1.19,1.406,1.406,0,0,1-1.381-1.4,1.212,1.212,0,0,1,1.238-1.205A1.517,1.517,0,0,1,274.194,209.972Zm9.46,12.748a21.137,21.137,0,0,1-1.984-4.1l1.506-.667a27.657,27.657,0,0,1,1.988,4.08Z"/>
      <path id="パス_4" data-name="パス 4" d="M295.982,208.014a80.951,80.951,0,0,1-7.756,13.912l-1.57-.868c.621-1.211,1.374-2.569,2.011-3.7,1.2-2.111,2.537-4.583,3.814-6.874.572-1.047,1.177-2.144,1.847-3.274Zm3.878,13.748a53.93,53.93,0,0,1-6.725-6.726l1.259-1.211a60.9,60.9,0,0,1,6.677,6.71Z"/>
      <path id="パス_5" data-name="パス 5" d="M307.851,214.578a1.7,1.7,0,1,1-1.7-1.735A1.714,1.714,0,0,1,307.851,214.578Z"/>
      <path id="パス_6" data-name="パス 6" d="M325.022,215.723c-2.322.23-6.25.409-7.773.458-.016,1-.031,2.569-.064,3.568,2.732-.212,6.021-.228,6.775-.2v1.817c-1.18.114-5.418.327-8.838.261-.064-1.145-.064-1.571-.064-5.352-.559.017-3.014.082-3.52.082v-1.783c.555-.066,3.045-.213,3.533-.246.035-1.309.1-2.537.115-3.175l1.981-.082c.018.279.018.425.018.655.015.753.015,1.047.048,2.487,3.159-.163,6.27-.245,7.789-.229Zm-2.207-5.581c-2.49.246-7.269.475-10.345.475v-1.768c1.474-.18,5.418-.344,6.17-.376q2.088-.05,4.175-.05Z"/>
      <path id="パス_7" data-name="パス 7" d="M340.788,215.151c-1.262.1-6.008.262-7.186.294-1.8.033-3.585.049-5.384.033v-1.8c.769-.082,6.677-.392,12.57-.359Z"/>
      <path id="パス_8" data-name="パス 8" d="M347.423,208.011c.133,1.293.148,5.6.148,7.037,0,2.341-.051,5.254-.179,7.578h-2.081c-.031-.834-.08-2.569-.08-4.943,0-.866.065-8.067.2-9.672Zm8.363,9.672a67.222,67.222,0,0,1-7.953-2.176l.572-1.8a48.961,48.961,0,0,1,7.9,2.258Zm-2.619-7.708a1.038,1.038,0,0,1-.965,1.1,1.174,1.174,0,0,1-1.064-1.113,1.086,1.086,0,0,1,.966-1.032A1.037,1.037,0,0,1,353.167,209.975Zm1.588,1.882a1.036,1.036,0,0,1-1.016,1.048.994.994,0,0,1-.914-1.015.967.967,0,1,1,1.93-.033Z"/>
      <path id="パス_9" data-name="パス 9" d="M360.378,209.049a15.762,15.762,0,0,1,.066,1.736c0,.931-.017,2-.066,2.928h-1.752c-.016-.392-.08-1.1-.08-2.372a22.429,22.429,0,0,1,.1-2.292Zm11.752,8.315c-.869.114-2.16.163-3.16.212-.768.033-1.553.082-2.325.115a31.941,31.941,0,0,1-.064,3.879c-.326,0-2.945-.067-4.289-.262l.1-1.72a15.535,15.535,0,0,1,2.127.018c-.018-.7-.018-1.048-.032-1.817-1.508.048-3.355.115-4.517.148-.377.016-.639.016-.983.016l-.033-1.687a50.839,50.839,0,0,1,5.533-.376,5.577,5.577,0,0,1,.049-.785c.113-.148.834-1.1,1.145-1.44-.688.033-2.666.114-4.043.114l.017-1.588c1.506-.163,6.072-.458,7.92-.393a24.183,24.183,0,0,1-2.961,3.634v.376c2.438-.049,2.748-.049,5.5-.049Zm-8.8-9.527a1.127,1.127,0,0,1-1.18,1.114,1.318,1.318,0,0,1-1.324-1.342,1.022,1.022,0,0,1,1.129-1.015A1.33,1.33,0,0,1,363.325,207.837Zm7,5.451c-.066-.8-.066-2-.049-2.455-3.306.2-7.758.36-9.345.36l-.016-1.669c3.289-.213,4.369-.278,7.283-.377l-.9-.687a14.28,14.28,0,0,1,2.109-2.569l1.313,1.015a14.893,14.893,0,0,1-1.77,2.208c.408,0,2.191-.049,2.553-.049.228-.016.41-.016.687-.016.016.573.049,1.179.049,1.964,0,1.031-.049,1.751-.082,2.259Zm-3.879-5.5a1.139,1.139,0,0,1-1.162,1.113c-.982,0-1.293-1.047-1.293-1.408a1.073,1.073,0,0,1,1.065-1.063A1.439,1.439,0,0,1,366.45,207.789Z"/>
      <path id="パス_10" data-name="パス 10" d="M376.868,207.507c.115,5.008.18,7.659.164,12.571,2.242-.133,5.957-.263,9.656-.263-.064-2.668-.148-5.974-.113-10.589-3,.147-6.025.277-9.019.359v-1.669c4.91-.392,8.82-.409,10.916-.425.084,3.257.115,5.645.115,8.739,0,1.67-.031,3.553-.049,5.222-4.484.2-8.969.295-13.436.343-.066-2.03-.15-4.878-.15-8.51,0-1.915.018-3.83.067-5.745Zm5.254,9.918c.016.966.016,1.146-.033,2.063H380.5a12.266,12.266,0,0,1-.049-1.343c-.557.361-1.129.7-2.193,1.326l-.688-1.1c1.408-1.031,1.983-1.408,2.7-1.865-1.015.049-1.128.049-1.308.049-.018-.295-.049-.671-.049-1.358,0-.541.016-1.048.031-1.326l1.442-.017c.048.622.048.7.064,1.6,1.065-.048,1.309-.065,2.457-.1a3.915,3.915,0,0,1-.017-.541c-1.145.066-1.26.082-2.145.115v-1a36.278,36.278,0,0,1,3.748-.18c.033.819.049,1.654.033,2.471a.907.907,0,0,1,.637-.244.887.887,0,0,1,.9.867.825.825,0,0,1-.851.817.891.891,0,0,1-.947-.817.836.836,0,0,1,.2-.541c-.721.033-.8.049-1.49.082-.393.295-.965.688-1.457,1.031Zm2.586-5.94c-.9.064-1.6.1-1.914.114v.572c.818-.032,1.521-.048,2.945-.082l.016,1.047c-3.649.263-4.975.295-7.824.377v-1.062c1.015-.082,1.213-.1,3.045-.213,0-.082-.016-.476-.016-.557-.459.017-1.44.066-2.342.1v-.949c1.246-.1,1.7-.131,2.326-.164,0-.213,0-.328.016-.786l1.75-.066c.035.459.035.558.051.786.049,0,1.129-.049,1.947-.049Zm.262,7.97a21.556,21.556,0,0,1-2.619-1.768l.753-1.014a21.217,21.217,0,0,1,2.668,1.751Z"/>
    </g>
    <g id="グループ_2" data-name="グループ 2">
      <path id="パス_11" data-name="パス 11" d="M249.231,233.534a113.358,113.358,0,0,1-4.324,12.567c-.367.916-4.141,9.453-6.961,13.667l-3.774-1.869c.877-1.759,2.305-5.056,3.446-7.584,2.6-5.973,2.855-6.6,5.164-12.275,1.209-3,1.869-4.506,2.49-5.9Zm11.246,2.858a170.169,170.169,0,0,1,7.877,21.178L264.508,259c-1.758-3.555-3.224-7.256-4.615-10.956-1.246-3.407-2.346-6.888-3.371-10.37Z"/>
      <path id="パス_12" data-name="パス 12" d="M289.351,239.323a85.01,85.01,0,0,1-2.676,11.358,95.243,95.243,0,0,1-4.652,10.515l-4.028-1.5c3.443-9.453,3.808-10.515,5.532-15.791.586-1.832,1.318-4.031,1.721-5.533Zm7.693-9.6c.182,4.837.258,9.673.258,14.509,0,1.724-.113,9.234-.113,10.772,4.654-1.648,11.212-3.59,12.163-3.847L310.636,255a70.652,70.652,0,0,1-17.987,6.119c-.037-.878-.074-1.575-.074-2.492-.077-3.552-.221-11.43-.221-14.655,0-.806.221-12.2.33-14.253Z"/>
      <path id="パス_13" data-name="パス 13" d="M333.356,241.608a103.692,103.692,0,0,1-5.843,11.984c.92-.2,1.673-.328,2.757-.525l.756,3.219a79.636,79.636,0,0,1-10.507,2.658l-.756-3.186c.92-.328,1.673-.557,3.088-.983,2.3-4.958,4.759-9.851,7.484-14.612Zm-1.806-9.193a67.428,67.428,0,0,1-5.811,7.781,13.539,13.539,0,0,1,2.266,2.068l-2.235,2.693a38.076,38.076,0,0,1-4.99-4.2,83.652,83.652,0,0,1,7.981-10.377Zm1.017,25.906a36.559,36.559,0,0,1-1.9-6.961l3.252-.82a46.24,46.24,0,0,1,1.574,5.712c1.151-4.105,2.3-8.242,3.416-12.346-.263,0-1.74.066-4.136.1l.031-3.347c2.035-.231,2.17-.263,5.125-.494.818-2.92,1.8-6.566,2.623-9.684l3.351.59c-.625,3.842-.822,4.99-1.709,8.832,3.35-.132,4.4-.164,7.026-.132a79.885,79.885,0,0,1-3.184,19.667,46.837,46.837,0,0,1-6.83-1.018l.69-3.152c1.214.066,1.742.1,3.087.264.788-4.925,1.215-7.291,2.133-12.148-1.017.1-1.279.131-3.842.295a125.878,125.878,0,0,1-5.253,15.989l-3.248-.919c.2-.69.228-.788.328-1.084Z"/>
      <path id="パス_14" data-name="パス 14" d="M380.185,249c.7-.031,1.144-.1,2.357-.16.029-1.112.029-1.751.062-2.547h3.123c0,.319,0,.51.061,2.42.607,0,1.148-.031,2.77,0v2.867c-.571.064-.954.064-2.737.192,0,.637.033,1.687,0,1.91,1.688-.031,2.133-.031,2.9-.031v2.8c-1.688.161-2.354.193-2.93.224,0,.573-.031,1.782-.031,2.293,1.783-.031,1.974-.063,3.6-.1h.352v3.088c-4.713.288-9.43.479-14.143.447-.064-4.044-.1-5.478-.1-10.032,0-.827.064-4.585.064-5.35-1.084,1.529-1.656,2.325-2.1,2.93l-2.645-1.784c.127-.222.607-.987.891-1.5-.221.031-1.782.159-1.815.159.065,5.287.033,10.543-.125,15.8H366.3c-.129-4.553-.129-4.681-.129-9.076a47.659,47.659,0,0,1-4.526,3.758l-1.906-2.548a61.1,61.1,0,0,1,6.463-5.732l.033-1.975c-.734.031-3.918.159-4.59.159v-3.056c2.389-.224,3.729-.319,4.655-.383.029-.669.129-3.725.156-4.332H369.7c0,.414,0,.8.1,4.142,1.465-.065,2.039-.065,2.676-.065V245.4c3.5-5.477,4.648-7.228,8.662-12.61l2.675,1.752c-1.527,2.418-3.089,4.935-5,7.77,3.791-.319,7.647-.477,11.5-.509v3.151c-3.347.224-6.658.381-11.211.576.063,2.61.092,5.221.092,7.8,0,1.018,0,3.312-.062,5.954.449-.031.734-.031,3.472-.191,0-.445-.033-1.018-.062-2.293h-2.42v-2.834c.506-.032,1.783-.127,2.387-.16v-1.941h-2.324Zm-19.874-11.559a131.615,131.615,0,0,1,13.885-4.364l.922,2.961c-5.6,2.008-9.139,3.154-13.851,4.459Zm13.7,14.68a1.868,1.868,0,0,1-1.912,1.945,2.159,2.159,0,0,1-2.166-2.231,1.824,1.824,0,0,1,2.006-1.879A2.2,2.2,0,0,1,374.007,252.125Zm14.137-13.439a2.517,2.517,0,0,1-2.452,2.356,2.193,2.193,0,0,1-2.257-2.2,2.375,2.375,0,0,1,2.419-2.325A2.231,2.231,0,0,1,388.144,238.686Z"/>
      <path id="パス_15" data-name="パス 15" d="M404.9,230.5c.242,10.677.383,16.33.348,26.8,4.779-.28,12.7-.559,20.588-.559-.139-5.688-.313-12.737-.246-22.576-6.383.313-12.838.592-19.227.767V231.37c10.469-.838,18.811-.872,23.277-.908.174,6.945.243,12.038.243,18.634,0,3.56-.069,7.572-.1,11.131-9.562.42-19.123.629-28.648.734-.141-4.328-.315-10.4-.315-18.146,0-4.082.033-8.164.141-12.248Zm11.2,21.145a43.673,43.673,0,0,1-.07,4.4h-3.385a26.107,26.107,0,0,1-.1-2.862c-1.186.769-2.408,1.5-4.676,2.828l-1.465-2.339c3-2.2,4.223-3,5.756-3.978-2.162.105-2.406.105-2.791.105-.035-.628-.1-1.43-.1-2.9,0-1.151.035-2.233.068-2.826l3.072-.035c.1,1.325.1,1.5.139,3.419,2.269-.1,2.793-.139,5.234-.208a8.188,8.188,0,0,1-.037-1.153c-2.441.14-2.685.175-4.57.244v-2.128a77.434,77.434,0,0,1,7.992-.384c.07,1.745.1,3.525.07,5.269a1.918,1.918,0,0,1,1.362-.523,1.894,1.894,0,0,1,1.918,1.849,1.764,1.764,0,0,1-1.815,1.745,1.9,1.9,0,0,1-2.023-1.745,1.794,1.794,0,0,1,.418-1.151c-1.535.069-1.709.1-3.176.175-.836.628-2.059,1.465-3.1,2.2Zm5.514-12.667c-1.92.141-3.418.21-4.082.245v1.221c1.746-.069,3.244-.1,6.279-.174l.037,2.232c-7.781.559-10.609.629-16.681.8v-2.267c2.164-.174,2.584-.209,6.492-.454,0-.175-.037-1.011-.037-1.186-.977.035-3.068.14-4.988.21v-2.025c2.652-.209,3.629-.279,4.955-.349,0-.454,0-.7.033-1.675l3.734-.14c.071.978.071,1.187.106,1.675.105,0,2.408-.1,4.152-.1Zm.559,16.995A45.539,45.539,0,0,1,416.6,252.2l1.605-2.164a45.327,45.327,0,0,1,5.686,3.733Z"/>
    </g>
    <g id="グループ_3" data-name="グループ 3">
      <path id="パス_16" data-name="パス 16" d="M241.7,270.337c0-.32.145-.481.434-.481s.433.161.433.481v.915l2.887-.1c.289,0,.434.129.434.385s-.145.385-.434.385l-2.887.1v3.032q.192.819.289,1.3a6.1,6.1,0,0,1,.048.819,3.158,3.158,0,0,1-1.348,2.647,6.415,6.415,0,0,1-3.9,1.01q-.337-.048-.337-.336a.351.351,0,0,1,.337-.386,5.675,5.675,0,0,0,3.176-.77,2.261,2.261,0,0,0,1.155-1.925v-.722a2.7,2.7,0,0,1-2.31,1.4,2.4,2.4,0,0,1-2.6-2.406,2.642,2.642,0,0,1,.722-1.781,2.552,2.552,0,0,1,1.4-.722,2.434,2.434,0,0,1,.962,0,2.853,2.853,0,0,1,1.54.866V272.07q-3.369.144-6.4.192c-.224,0-.337-.127-.337-.385s.113-.385.337-.385q3.177-.047,6.4-.192Zm-3.417,4.091a1.918,1.918,0,0,0-.433,1.155,1.739,1.739,0,0,0,.626,1.4,1.786,1.786,0,0,0,1.155.385,1.993,1.993,0,0,0,1.4-.529,1.725,1.725,0,0,0,.529-1.155,1.969,1.969,0,0,0-.337-1.156,1.872,1.872,0,0,0-1.54-.721A1.834,1.834,0,0,0,238.286,274.428Z" fill="#333"/>
      <path id="パス_17" data-name="パス 17" d="M247.888,270.193a.386.386,0,0,1,.385.481q-.337,2.07-.482,3.369-.1,1.109-.1,2.166a33.856,33.856,0,0,0,.193,3.658.418.418,0,0,1-.386.481c-.257.032-.417-.113-.481-.433a27.2,27.2,0,0,1-.144-2.792q0-1.395.048-2.55.048-1.2.481-3.995A.386.386,0,0,1,247.888,270.193Zm6.208.192a.434.434,0,0,1,.867,0l.048,1.637,1.684-.048a.417.417,0,0,1,.481.385q0,.385-.433.385l-1.732.048q.144,2.262.144,4.38a10.966,10.966,0,0,1,2.021,1.492.6.6,0,0,1,.1.77.524.524,0,0,1-.722,0,9.7,9.7,0,0,0-1.444-1.3,2.485,2.485,0,0,1-.866,1.829,3.6,3.6,0,0,1-2.118.578,3.23,3.23,0,0,1-1.877-.53,2.053,2.053,0,0,1-.866-1.684,1.876,1.876,0,0,1,.818-1.54,3.552,3.552,0,0,1,1.973-.53,5.661,5.661,0,0,1,2.214.578q-.048-2.166-.193-3.995-3.129.1-4.716.1-.434,0-.433-.385t.433-.385h1.155q2.022-.046,3.513-.1Zm-3.8,7.172a1.277,1.277,0,0,0-.289.77,1.3,1.3,0,0,0,.626,1.107,3.092,3.092,0,0,0,3.225-.145,2.268,2.268,0,0,0,.481-1.636,4.736,4.736,0,0,0-2.166-.722A2.452,2.452,0,0,0,250.294,277.557Zm5.246-7.99a.3.3,0,0,1,.385.1,5.484,5.484,0,0,1,.77,1.589.274.274,0,0,1-.192.337.311.311,0,0,1-.385-.193,13.621,13.621,0,0,0-.674-1.492A.247.247,0,0,1,255.54,269.567Zm1.155-.241a.3.3,0,0,1,.385.1,4.811,4.811,0,0,1,.77,1.588.274.274,0,0,1-.192.337.311.311,0,0,1-.385-.193,13.794,13.794,0,0,0-.674-1.492A.247.247,0,0,1,256.7,269.326Z" fill="#333"/>
      <path id="パス_18" data-name="パス 18" d="M259.154,272.214a.462.462,0,0,1,.53-.337.407.407,0,0,1,.289.53q-.338,1.3-.53,2.358a9.3,9.3,0,0,0-.144,1.492,11.847,11.847,0,0,1,2.454-1.492,6.661,6.661,0,0,1,2.359-.433,4.139,4.139,0,0,1,2.984,1.059,2.364,2.364,0,0,1,.722,1.732,2.779,2.779,0,0,1-.867,2.118,6.155,6.155,0,0,1-4.283,1.252,18.415,18.415,0,0,1-2.455-.145.351.351,0,0,1-.337-.385c0-.224.128-.337.385-.337q1.155.1,2.262.1a5.629,5.629,0,0,0,3.754-1.107,2.019,2.019,0,0,0,.578-1.492,1.642,1.642,0,0,0-.674-1.347,3.267,3.267,0,0,0-2.117-.626,5.646,5.646,0,0,0-2.118.385,8.888,8.888,0,0,0-1.2.626q-.965.675-1.541,1.107c-.385.224-.625.113-.722-.337v-.481a25.763,25.763,0,0,1,.53-3.61Zm6.45-1.251a.461.461,0,0,1,.337.529.392.392,0,0,1-.53.337,26.367,26.367,0,0,0-5.294-1.011c-.193-.064-.289-.175-.289-.336q0-.289.337-.337A28.2,28.2,0,0,1,265.6,270.963Z" fill="#333"/>
      <path id="パス_19" data-name="パス 19" d="M270.274,270.818c.031-.288.176-.433.432-.433q.482,0,.434.482-.194,3.273-.241,5.294v.674a2.8,2.8,0,0,0,.722,2.069,2.67,2.67,0,0,0,1.973.674,4.452,4.452,0,0,0,3.177-1.348,9.887,9.887,0,0,0,1.877-2.743.5.5,0,0,1,.577-.337q.434.144.241.674a12.151,12.151,0,0,1-1.877,2.791,5.371,5.371,0,0,1-3.947,1.781,3.587,3.587,0,0,1-2.647-.914,3.384,3.384,0,0,1-.914-2.5v-1.588Z" fill="#333"/>
      <path id="パス_20" data-name="パス 20" d="M281.327,270.578c.321,0,.465.161.433.481q-.144,1.059-.241,1.781a18.729,18.729,0,0,0-.24,2.743,11.687,11.687,0,0,0,.1,1.54,3.07,3.07,0,0,0,.722,1.974.384.384,0,0,0,.578.048,8.155,8.155,0,0,0,1.443-3.465.35.35,0,0,1,.434-.241q.336.1.24.481l-.048.241a10.77,10.77,0,0,1-1.155,3.176q-.625.963-1.2.963-.673-.048-1.252-1.107a8.051,8.051,0,0,1-.625-3.658q0-1.058.1-2.406.1-1.155.241-2.118C280.91,270.691,281.07,270.546,281.327,270.578Zm6.4.24a.423.423,0,0,1,.53.1,10.309,10.309,0,0,1,1.828,3.658,16,16,0,0,1,.53,4.331.529.529,0,1,1-1.059,0,17.355,17.355,0,0,0-.433-4.235,11.534,11.534,0,0,0-1.54-3.321A.388.388,0,0,1,287.728,270.818Z" fill="#333"/>
      <path id="パス_21" data-name="パス 21" d="M293.976,269.856q.385.242.1.722a13.313,13.313,0,0,1-1.155,1.684q1.732,0,3.177-.1-.434-.673-.915-1.348a.261.261,0,0,1,.048-.385.328.328,0,0,1,.433.049,8.682,8.682,0,0,1,1.589,1.973q.288.434-.1.674c-.224.1-.417.016-.577-.241l-.144-.192a31.506,31.506,0,0,1-4.717.288c-.161-.031-.241-.144-.241-.337s.064-.3.193-.336a3.51,3.51,0,0,1,.577-.049,19.655,19.655,0,0,0,1.107-2.021Q293.591,269.663,293.976,269.856Zm1.829,4a.827.827,0,0,1,.77.77v5.2a.835.835,0,0,1-.915.914,6.229,6.229,0,0,1-1.395-.144q-.338-.1-.289-.385c.064-.225.225-.306.481-.241a3.046,3.046,0,0,0,1.107.1q.338-.048.337-.337V278.23h-3.128v2.214c0,.257-.113.385-.337.385s-.337-.128-.337-.385v-5.823a.827.827,0,0,1,.77-.77Zm-3.032.962v.915H295.9v-.915a.34.34,0,0,0-.385-.385h-2.358A.34.34,0,0,0,292.773,274.813Zm0,2.84H295.9V276.3h-3.128Zm5.2-7.508q0-.385.337-.385t.336.385v1.492a9.222,9.222,0,0,0,2.647-.963q.53-.288.722.1.144.434-.385.626a13.222,13.222,0,0,1-2.984.915v1.395a.341.341,0,0,0,.386.385h2.117a.68.68,0,0,0,.77-.77v-.674c0-.256.112-.385.337-.385s.337.129.337.385v.963a1.021,1.021,0,0,1-1.156,1.155h-2.694a.828.828,0,0,1-.77-.77Zm0,5.486c0-.256.112-.385.337-.385s.336.129.336.385v1.637a8.12,8.12,0,0,0,2.743-.915q.482-.288.674.049t-.337.673a8.519,8.519,0,0,1-3.08.867v1.684a.341.341,0,0,0,.386.385H301.1a.68.68,0,0,0,.77-.77v-.626c0-.256.112-.385.337-.385s.336.129.336.385v.963a.978.978,0,0,1-1.107,1.107h-2.694a.827.827,0,0,1-.77-.77Z" fill="#333"/>
      <path id="パス_22" data-name="パス 22" d="M307.769,270.385c0-.32.144-.481.433-.481s.433.161.433.481v1.685h4.38a.83.83,0,0,1,.77.77v3.513q0,2.889-.819,3.706a2.379,2.379,0,0,1-1.732.53,10.172,10.172,0,0,1-2.936-.482q-.434-.144-.433-.433c0-.288.208-.385.625-.288a13.639,13.639,0,0,0,2.84.385,1.441,1.441,0,0,0,1.059-.434q.529-.529.529-2.984v-3.224a.34.34,0,0,0-.385-.385h-3.946a9.664,9.664,0,0,1-4.236,7.6c-.256.161-.465.161-.625,0q-.242-.336.192-.626a9.146,9.146,0,0,0,3.8-6.978H304.3c-.257,0-.385-.113-.385-.337s.128-.337.385-.337h3.466Z" fill="#333"/>
      <path id="パス_23" data-name="パス 23" d="M318.784,270.1a.458.458,0,0,1,.53-.289.405.405,0,0,1,.288.529,7.031,7.031,0,0,1-.24.77q2.5-.1,5.1-.337a.386.386,0,0,1,.482.385c0,.258-.145.4-.433.434q-3.658.192-5.391.24a10,10,0,0,1-1.251,2.359,12.125,12.125,0,0,1,1.973-.915,3.51,3.51,0,0,1,1.011-.144,1.913,1.913,0,0,1,1.251.433,2.161,2.161,0,0,1,.626,1.444q1.2-.336,2.358-.674a.459.459,0,0,1,.529.337.391.391,0,0,1-.336.529q-1.3.338-2.455.626v2.021q0,.481-.433.482t-.433-.482v-1.732a10.734,10.734,0,0,0-3.8,1.781,1.312,1.312,0,0,0-.529.914.9.9,0,0,0,.626.818,6.852,6.852,0,0,0,2.069.193q1.348,0,2.31-.1a17.058,17.058,0,0,0,2.022-.288.454.454,0,0,1,.481.385.446.446,0,0,1-.337.481,13.325,13.325,0,0,1-2.5.289q-1.637.047-2.118.048a4.882,4.882,0,0,1-2.647-.53,1.517,1.517,0,0,1-.674-1.2,2.009,2.009,0,0,1,.818-1.588,13.479,13.479,0,0,1,4.236-2.07,1.262,1.262,0,0,0-1.444-1.347,4.192,4.192,0,0,0-1.733.481,10.267,10.267,0,0,0-2.743,2.07.381.381,0,0,1-.578-.048.444.444,0,0,1,.048-.578,11.611,11.611,0,0,0,1.685-1.877,9.746,9.746,0,0,0,1.059-2.07h-2.359c-.289,0-.433-.127-.433-.385s.144-.385.433-.385h2.6Z" fill="#333"/>
      <path id="パス_24" data-name="パス 24" d="M329.16,270.674a.554.554,0,0,1,.626.626v7.027a.553.553,0,0,1-.626.625h-1.781a.552.552,0,0,1-.625-.625V271.3a.553.553,0,0,1,.625-.626Zm-1.733.915v6.449a.213.213,0,0,0,.241.241h1.2a.213.213,0,0,0,.241-.241v-6.449a.213.213,0,0,0-.241-.241h-1.2A.213.213,0,0,0,327.427,271.589Zm8.616-1.733c.288.065.385.289.288.674a7.1,7.1,0,0,1-.818,1.732h1.3c.256,0,.385.113.385.337s-.129.337-.385.337h-2.792v2.5H337.2c.256,0,.385.113.385.337s-.129.337-.385.337h-3.177a6.786,6.786,0,0,0,3.128,3.706q.482.24.337.674-.24.336-.77.1a7.832,7.832,0,0,1-2.984-3.273q-.865,1.974-4.283,3.465-.529.192-.674-.144-.1-.338.337-.53,3.754-1.684,4.139-3.994h-2.6c-.257,0-.385-.113-.385-.337s.128-.337.385-.337h2.695v-2.5h-2.5q-.385,0-.385-.337c0-.224.128-.337.385-.337h1.107a13.676,13.676,0,0,0-.626-1.636c-.129-.257-.1-.449.1-.578.225-.1.417-.016.578.241a10.4,10.4,0,0,1,.866,1.973h1.877a9.77,9.77,0,0,0,.818-2.021Q335.657,269.807,336.043,269.856Z" fill="#333"/>
      <path id="パス_25" data-name="パス 25" d="M341.938,270.289a.393.393,0,0,1,.53-.337c.256.065.369.209.337.433q-.193.771-.433,1.54,1.251-.144,1.588-.144a2.41,2.41,0,0,1,1.781.674,4.4,4.4,0,0,1,.818,3.032,10.217,10.217,0,0,1-.482,3.321,1.99,1.99,0,0,1-2.021,1.54,3.534,3.534,0,0,1-1.3-.289,4.712,4.712,0,0,1-1.252-.722.3.3,0,0,1-.1-.433q.1-.192.385-.1a5.01,5.01,0,0,0,2.118.722,1.453,1.453,0,0,0,1.3-.963,6.993,6.993,0,0,0,.481-2.984,4.571,4.571,0,0,0-.433-2.454,1.554,1.554,0,0,0-1.3-.626,13.082,13.082,0,0,0-1.781.241,37.054,37.054,0,0,1-1.492,4.283,25.878,25.878,0,0,1-1.348,2.84.493.493,0,0,1-.673.192.508.508,0,0,1-.145-.673,19.741,19.741,0,0,0,1.444-2.744,34.968,34.968,0,0,0,1.348-3.754c-.706.065-1.428.128-2.166.193-.321,0-.5-.128-.53-.385q0-.434.482-.482,1.155-.046,2.406-.192Q341.746,271.155,341.938,270.289Zm4.717.674a.48.48,0,0,1,.578,0,9.508,9.508,0,0,1,1.588,2.406,7.453,7.453,0,0,1,.626,2.407.459.459,0,0,1-.434.529c-.288.032-.465-.112-.529-.433a9.306,9.306,0,0,0-.578-2.31,7.272,7.272,0,0,0-1.251-2.07A.412.412,0,0,1,346.655,270.963Z" fill="#333"/>
      <path id="パス_26" data-name="パス 26" d="M359.168,273.321v1.155a4.3,4.3,0,0,1-.433,2.407,1.367,1.367,0,0,1-1.107.529,4.854,4.854,0,0,1-2.214-.625.4.4,0,0,1-.145-.578c.1-.16.257-.193.481-.1a9.028,9.028,0,0,0,.915.337,2.815,2.815,0,0,0,.77.1q.529,0,.674-.337a3.7,3.7,0,0,0,.192-1.4v-1.444l-5.342.385v3.369a2.908,2.908,0,0,0,.529,1.974,2.257,2.257,0,0,0,1.733.577q1.588,0,3.177-.144a12.881,12.881,0,0,0,1.395-.193.46.46,0,0,1,.53.434.471.471,0,0,1-.433.481q-1.4.144-2.84.192h-1.829a2.953,2.953,0,0,1-2.455-.866,4.041,4.041,0,0,1-.673-2.647V273.8l-1.589.1a.351.351,0,0,1-.385-.337.392.392,0,0,1,.385-.433l1.589-.1v-1.925c0-.32.144-.481.433-.481s.433.161.433.481v1.877l5.342-.385v-2.117q0-.481.434-.482c.288,0,.433.161.433.482v2.069l1.636-.1q.482-.048.481.385,0,.338-.481.385Z" fill="#333"/>
      <path id="パス_27" data-name="パス 27" d="M367.9,270.289c0-.32.145-.481.433-.481s.433.161.433.481V271.3l3.225-.145q.385,0,.385.434a.34.34,0,0,1-.385.385l-3.225.1v1.781l3.225-.145c.257,0,.385.145.385.433a.34.34,0,0,1-.385.385l-3.176.1v2.647a16.453,16.453,0,0,1,3.321,1.925.5.5,0,0,1,.048.722.533.533,0,0,1-.674,0,23.012,23.012,0,0,0-2.7-1.781,2.751,2.751,0,0,1-.915,1.925,3.488,3.488,0,0,1-2.31.626,3.193,3.193,0,0,1-2.262-.722,2.047,2.047,0,0,1-.674-1.444,2.021,2.021,0,0,1,.674-1.54,3.184,3.184,0,0,1,2.069-.626,7.292,7.292,0,0,1,2.551.578v-2.262l-2.647.048h-2.7q-.434,0-.433-.385t.433-.385h2.647l2.647-.048v-1.781l-2.647.048h-2.647q-.434,0-.433-.385t.433-.385h2.647l2.647-.048Zm-3.9,7.123a1.25,1.25,0,0,0-.578,1.011,1.456,1.456,0,0,0,.578,1.155,2.869,2.869,0,0,0,1.732.433,2.387,2.387,0,0,0,1.685-.577,2.306,2.306,0,0,0,.529-1.685,7,7,0,0,0-2.647-.722A2.3,2.3,0,0,0,364,277.412Z" fill="#333"/>
      <path id="パス_28" data-name="パス 28" d="M380.316,270.337c0-.32.144-.481.433-.481s.433.161.433.481v.915l2.888-.1c.288,0,.433.129.433.385s-.145.385-.433.385l-2.888.1v3.032q.192.819.289,1.3a5.939,5.939,0,0,1,.048.819,3.155,3.155,0,0,1-1.348,2.647,6.415,6.415,0,0,1-3.9,1.01q-.338-.048-.337-.336a.351.351,0,0,1,.337-.386,5.675,5.675,0,0,0,3.176-.77,2.261,2.261,0,0,0,1.155-1.925v-.722a2.694,2.694,0,0,1-2.31,1.4,2.4,2.4,0,0,1-2.6-2.406,2.642,2.642,0,0,1,.722-1.781,2.552,2.552,0,0,1,1.4-.722,2.434,2.434,0,0,1,.962,0,2.856,2.856,0,0,1,1.541.866V272.07q-3.371.144-6.4.192c-.224,0-.337-.127-.337-.385s.113-.385.337-.385q3.177-.047,6.4-.192Zm-3.418,4.091a1.924,1.924,0,0,0-.433,1.155,1.739,1.739,0,0,0,.626,1.4,1.79,1.79,0,0,0,1.155.385,1.993,1.993,0,0,0,1.4-.529,1.725,1.725,0,0,0,.529-1.155,1.962,1.962,0,0,0-.337-1.156,1.872,1.872,0,0,0-1.54-.721A1.835,1.835,0,0,0,376.9,274.428Z" fill="#333"/>
    </g>
    <line id="線_1" data-name="線 1" x2="29.415" transform="translate(394.471 274.945)" fill="none" stroke="#333" stroke-miterlimit="10" stroke-width="1"/>
    <g id="グループ_5" data-name="グループ 5">
      <g id="グループ_4" data-name="グループ 4">
        <path id="パス_29" data-name="パス 29" d="M161.347,213.97a36.3,36.3,0,0,1,5.863-3.694c3.863-1.943,8.285-3.5,12.658-3.5,8.083,0,15.078.728,22.178,4.992,5.035,3.025,9.71,6.93,12.653,12.086,6.325,11.089,8.021,25.876-.149,36.527-5.221,6.808-12.651,11.817-21.625,10.5-12.934-1.9-19.314-18.981-9.081-27.89a16.51,16.51,0,0,1,11.112-4.212c4.2-.016,9.279,2.119,11.333,5.957v.744c0-1.3-6.241-3.071-7.27-3.232a14.7,14.7,0,0,0-8.1,1.089,11.473,11.473,0,0,0-5.374,15.5,11.96,11.96,0,0,0,6.307,5.427c6.11,2.182,12.348-1.874,15.8-6.721a25.078,25.078,0,0,0,2.714-4.8,26.174,26.174,0,0,0-.785-22.4,31.015,31.015,0,0,0-9.462-10.478,27.873,27.873,0,0,0-9.353-3.952c-10.85-2.454-22.7-.049-30.648,8.181a20.765,20.765,0,0,0-4.573,7.164c-2.223,6.237-2.946,14.964-1.283,21.38a30.13,30.13,0,0,0,14.549,18.742c2.1,1.105,4.542,1.446,6.454,2.928-3.2-6.392-8.05-12-8.05-19.535v-4.465c.128-1.981.617-3.6.745-5.582.551.069.341.9.372,1.488-.536,10.087,2.816,16.286,6.7,21.956,1.71,3.644,6.5,6.128,7.443,9.3-.017.121-8.494-.636-9.252-.714-10.508-1.067-19.639-9.528-23.308-19.11a53.676,53.676,0,0,1-2.5-8.818,33.034,33.034,0,0,1,.522-14.711A37.75,37.75,0,0,1,161.347,213.97Z" fill="#79a628" fill-rule="evenodd"/>
        <path id="パス_30" data-name="パス 30" d="M185.078,232.084a37.36,37.36,0,0,0-12.652,2.233c1.617-7.46,3.947-16.12,13.4-14.513.7,1.069.41,3.711,0,4.837,2.755-.4,6.357-2.02,8.931-.371a10.737,10.737,0,0,1,.372,4.093v.372c-.5,1.485-1.8,2.172-2.977,2.977h-.372C189.663,231.955,186.574,231.223,185.078,232.084Z" fill="#fc914b" fill-rule="evenodd"/>
        <path id="パス_31" data-name="パス 31" d="M158.284,235.8c-2.564-4.724,1.75-8.207,6.327-8.187.831-4.261,4.326-9.659,9.3-6.325.989,4.989-3.319,7.484-2.978,13.024C166.655,233.114,162.794,237.22,158.284,235.8Z" fill="#85b659" fill-rule="evenodd"/>
        <path id="パス_32" data-name="パス 32" d="M170.193,243.62a34.646,34.646,0,0,1,1.86-7.442c4.115-1.113,12.631-4.274,16-.373-.052,5.034-4.6,5.567-9.675,5.582h-.373v4.838c.6,4.628-7.3,6.412-7.814,1.488Z" fill="#0c419a" fill-rule="evenodd"/>
        <path id="パス_33" data-name="パス 33" d="M159.029,247.713c-1.518.1-1.838,1.388-3.721,1.117-2.338-8.882,6.69-12.592,14.885-13.4.426,1.719-.834,1.184-1.861,2.977a29.819,29.819,0,0,0-2.233,6.7c-1,4.218-.442,9.856-4.093,10.419C157.7,256.192,157.02,251.365,159.029,247.713Z" fill="#f94e63" fill-rule="evenodd"/>
        <path id="パス_34" data-name="パス 34" d="M201.824,251.807a2.7,2.7,0,0,1-.117-2.684c.667-1.4,1.758-.828,1.977.451C203.886,250.751,203.41,252.85,201.824,251.807Z" fill="#090708" fill-rule="evenodd"/>
        <path id="パス_35" data-name="パス 35" d="M189.543,255.9v-1.488c.3.07.372.373.744.372.556,6.506,12.424,6.209,12.653-.372.3.07.371.373.744.372C203.73,262.851,190.537,263.414,189.543,255.9Z" fill="#090708" fill-rule="evenodd"/>
        <path id="パス_36" data-name="パス 36" d="M203,252.2a1.244,1.244,0,0,1,.077-.2c.809-1.677,3.382-.971,2.627.963a1.455,1.455,0,0,1-2.439.457A1.269,1.269,0,0,1,203,252.2Z" fill="#e1ab19" fill-rule="evenodd"/>
        <path id="パス_37" data-name="パス 37" d="M189.419,251.211c.678.456,1.2,1.434.888,2.08-.485.99-1.872.675-2.554.13-1.077-.861-.556-2.25.819-2.452A1.23,1.23,0,0,1,189.419,251.211Z" fill="#e1ab19" fill-rule="evenodd"/>
        <path id="パス_38" data-name="パス 38" d="M190.318,252.084a1.34,1.34,0,0,1-.358-.222c-.579-.483-.474-1.949-.28-2.583.225-.735,1-1.611,1.763-.882.6.568.4,1.8.262,2.526C191.565,251.667,191.024,252.368,190.318,252.084Z" fill="#090708" fill-rule="evenodd"/>
      </g>
    </g>
  </g>
</svg>
